<?xml version="1.0" encoding="utf-8"?>
<!-- Generator: Adobe Illustrator 23.0.2, SVG Export Plug-In . SVG Version: 6.00 Build 0)  -->
<svg version="1.1" id="圖層_1" xmlns="http://www.w3.org/2000/svg" xmlns:xlink="http://www.w3.org/1999/xlink" x="0px" y="0px"
	 viewBox="0 0 512 384" style="enable-background:new 0 0 512 384;" xml:space="preserve">
<style type="text/css">
	.st0{fill:#A5A1A1;}
</style>
<path class="st0" d="M320.4,131.5h-18.9c-0.5-1.4-0.9-2.8-1.4-4.3c-4.5-13.4-12.4-19.2-28.4-19.2h-31.5c-16,0-23.8,5.7-28.3,19.2
	c-0.5,1.4-0.9,2.8-1.4,4.3h-18.9c-25.2,0-33.9,10.5-33.9,33.9v80.8c0,23.5,8.8,33.9,33.9,33.9h128.8c25.2,0,33.9-10.5,33.9-33.9
	v-80.9C354.3,141.9,345.5,131.5,320.4,131.5z M256,266.9c-31.3,0-56.5-25.3-56.5-56.5s25.3-56.5,56.5-56.5s56.5,25.3,56.5,56.5
	S287.3,266.9,256,266.9z"/>
<circle class="st0" cx="256" cy="210.4" r="44.3"/>
</svg>
